<svg width="40" height="40" viewBox="0 0 40 40" fill="#222222" xmlns="http://www.w3.org/2000/svg">
<path d="M10 17.6C10 16.9373 9.46274 16.4 8.80001 16.4C8.13727 16.4 7.60001 16.9373 7.60001 17.6H10ZM18.4 32.4C19.0627 32.4 19.6 31.8627 19.6 31.2C19.6 30.5373 19.0627 30 18.4 30V32.4ZM7.60001 17.6C7.60001 18.2627 8.13727 18.8 8.80001 18.8C9.46274 18.8 10 18.2627 10 17.6H7.60001ZM18.4 9.99998C19.0627 9.99998 19.6 9.46271 19.6 8.79998C19.6 8.13724 19.0627 7.59998 18.4 7.59998V9.99998ZM8.80001 16.4C8.13727 16.4 7.60001 16.9373 7.60001 17.6C7.60001 18.2627 8.13727 18.8 8.80001 18.8V16.4ZM18.4 18.8C19.0627 18.8 19.6 18.2627 19.6 17.6C19.6 16.9373 19.0627 16.4 18.4 16.4V18.8ZM17.2 17.6C17.2 18.2627 17.7373 18.8 18.4 18.8C19.0627 18.8 19.6 18.2627 19.6 17.6H17.2ZM19.6 8.79998C19.6 8.13724 19.0627 7.59998 18.4 7.59998C17.7373 7.59998 17.2 8.13724 17.2 8.79998H19.6ZM19.6 17.6C19.6 16.9373 19.0627 16.4 18.4 16.4C17.7373 16.4 17.2 16.9373 17.2 17.6H19.6ZM17.2 23.2C17.2 23.8627 17.7373 24.4 18.4 24.4C19.0627 24.4 19.6 23.8627 19.6 23.2H17.2ZM18.4 30C17.7373 30 17.2 30.5373 17.2 31.2C17.2 31.8627 17.7373 32.4 18.4 32.4V30ZM32.4 23.2C32.4 22.5373 31.8627 22 31.2 22C30.5373 22 30 22.5373 30 23.2H32.4ZM17.2 31.2C17.2 31.8627 17.7373 32.4 18.4 32.4C19.0627 32.4 19.6 31.8627 19.6 31.2H17.2ZM19.6 23.2C19.6 22.5373 19.0627 22 18.4 22C17.7373 22 17.2 22.5373 17.2 23.2H19.6ZM18.4 7.59998C17.7373 7.59998 17.2 8.13724 17.2 8.79998C17.2 9.46271 17.7373 9.99998 18.4 9.99998V7.59998ZM30 23.2C30 23.8627 30.5373 24.4 31.2 24.4C31.8627 24.4 32.4 23.8627 32.4 23.2H30ZM31.2 24.4C31.8627 24.4 32.4 23.8627 32.4 23.2C32.4 22.5373 31.8627 22 31.2 22V24.4ZM18.4 22C17.7373 22 17.2 22.5373 17.2 23.2C17.2 23.8627 17.7373 24.4 18.4 24.4V22ZM7.60001 17.6V24.8H10V17.6H7.60001ZM7.60001 24.8C7.60001 28.9974 11.0026 32.4 15.2 32.4V30C12.3281 30 10 27.6718 10 24.8H7.60001ZM15.2 32.4H18.4V30H15.2V32.4ZM10 17.6V15.2H7.60001V17.6H10ZM10 15.2C10 12.3281 12.3281 9.99998 15.2 9.99998V7.59998C11.0026 7.59998 7.60001 11.0026 7.60001 15.2H10ZM15.2 9.99998H18.4V7.59998H15.2V9.99998ZM8.80001 18.8H18.4V16.4H8.80001V18.8ZM19.6 17.6V8.79998H17.2V17.6H19.6ZM17.2 17.6V23.2H19.6V17.6H17.2ZM18.4 32.4H24.8V30H18.4V32.4ZM24.8 32.4C28.9974 32.4 32.4 28.9974 32.4 24.8H30C30 27.6718 27.6718 30 24.8 30V32.4ZM32.4 24.8V23.2H30V24.8H32.4ZM19.6 31.2V23.2H17.2V31.2H19.6ZM18.4 9.99998H24.8V7.59998H18.4V9.99998ZM24.8 9.99998C27.6718 9.99998 30 12.3281 30 15.2H32.4C32.4 11.0026 28.9974 7.59998 24.8 7.59998V9.99998ZM30 15.2V23.2H32.4V15.2H30ZM31.2 22H18.4V24.4H31.2V22Z"/>
</svg>
